<?xml version="1.0" encoding="utf-8"?><!-- Uploaded to: SVG Repo, www.svgrepo.com, Generator: SVG Repo Mixer Tools -->
<svg fill="#000000" width="800px" height="800px" viewBox="0 0 24 24" id="air-conditioner-alt-3" data-name="Flat Line" xmlns="http://www.w3.org/2000/svg" class="icon flat-line"><path id="secondary" d="M20,7H4A1,1,0,0,0,3,8v8a1,1,0,0,0,1,1H7V14a1,1,0,0,1,1-1h8a1,1,0,0,1,1,1v3h3a1,1,0,0,0,1-1V8A1,1,0,0,0,20,7Z" style="fill: rgb(44, 169, 188); stroke-width: 2;"></path><path id="primary" d="M17,17H7V14a1,1,0,0,1,1-1h8a1,1,0,0,1,1,1Zm4-1V8a1,1,0,0,0-1-1H4A1,1,0,0,0,3,8v8a1,1,0,0,0,1,1H20A1,1,0,0,0,21,16Z" style="fill: none; stroke: rgb(0, 0, 0); stroke-linecap: round; stroke-linejoin: round; stroke-width: 2;"></path></svg>